<svg xmlns="http://www.w3.org/2000/svg" viewBox="0 0 52 52"><title>wifi-home</title><g id="wifi-home"><g id="wifi-home-2" data-name="wifi-home"><polygon points="46 20 26 7 6 20 6 49 46 49 46 20" fill="#eae8e8"/><rect x="6" y="48" width="40" height="2" fill="#ccc"/><rect x="9" y="9" width="6" height="7" fill="#f0693f"/><polygon points="47.43 23 26 8.45 4.57 23 2 19.29 26 3 50 19.29 47.43 23" fill="#ff6e40"/><rect x="20" y="24" width="12" height="22" fill="#40495a"/><rect x="8" y="24" width="10" height="10" fill="#d7d4d4"/><rect x="9" y="25" width="8" height="8" fill="#3cc0d1"/><rect x="34" y="24" width="10" height="10" fill="#d7d4d4"/><rect x="35" y="25" width="8" height="8" fill="#3cc0d1"/><circle cx="22" cy="34" r="1" fill="#ffcd02"/><circle cx="26" cy="16" r="4" fill="#d7d4d4"/><polygon points="30 15.5 26.5 15.5 26.5 12 25.5 12 25.5 15.5 22 15.5 22 16.5 25.5 16.5 25.5 20 26.5 20 26.5 16.5 30 16.5 30 15.5" fill="#eae8e8"/><path d="M11.31,8h-.92A1.39,1.39,0,0,0,9,6.62V5.69A2.31,2.31,0,0,1,11.31,8Z" fill="#2ecc71"/><path d="M13.15,8h-.92A3.23,3.23,0,0,0,9,4.77V3.85A4.16,4.16,0,0,1,13.15,8Z" fill="#2ecc71"/><path d="M15,8h-.92A5.08,5.08,0,0,0,9,2.92V2A6,6,0,0,1,15,8Z" fill="#2ecc71"/><path d="M38.83,50A7.16,7.16,0,0,1,38,46.67C38,43,40.69,40,44,40s6,3,6,6.67V50Z" fill="#27ae60"/><path d="M33,50V48a4,4,0,0,1,8,0v2Z" fill="#2ecc71"/><path d="M13.17,50A7.16,7.16,0,0,0,14,46.67C14,43,11.31,40,8,40s-6,3-6,6.67V50Z" fill="#27ae60"/><path d="M19,50V48a3.84,3.84,0,0,0-4-4,3.83,3.83,0,0,0-4,4v2Z" fill="#2ecc71"/><rect x="24" y="38" width="4" height="1" fill="#748191"/></g></g></svg>